<svg width="54" height="54" viewBox="0 0 54 54" fill="none" xmlns="http://www.w3.org/2000/svg">
<path fill-rule="evenodd" clip-rule="evenodd" d="M0.896484 14.0418C0.896484 6.73383 6.82074 0.80957 14.1287 0.80957H40.5931C47.901 0.80957 53.8253 6.73383 53.8253 14.0418V40.5061C53.8253 47.8141 47.901 53.7383 40.5931 53.7383H14.1287C6.82074 53.7383 0.896484 47.8141 0.896484 40.5061V14.0418ZM14.1287 6.10245C9.74391 6.10245 6.18936 9.657 6.18936 14.0418V40.5061C6.18936 44.8909 9.74391 48.4455 14.1287 48.4455H40.5931C44.9778 48.4455 48.5324 44.8909 48.5324 40.5061V14.0418C48.5324 9.657 44.9778 6.10245 40.5931 6.10245H14.1287ZM31.8786 17.4633C32.9121 18.4968 32.9121 20.1725 31.8786 21.206L25.8106 27.274L31.8786 33.342C32.9121 34.3755 32.9121 36.0511 31.8786 37.0846C30.8451 38.1181 29.1695 38.1181 28.136 37.0846L20.1967 29.1453C19.1632 28.1118 19.1632 26.4361 20.1967 25.4026L28.136 17.4633C29.1695 16.4298 30.8451 16.4298 31.8786 17.4633Z" fill="#F5F1E9"/>
</svg>
