<svg width="50" height="50" viewBox="0 0 50 50" fill="none" xmlns="http://www.w3.org/2000/svg">
<path fill-rule="evenodd" clip-rule="evenodd" d="M0.978516 12.5356C0.978516 5.80224 6.43701 0.34375 13.1704 0.34375H37.5541C44.2875 0.34375 49.746 5.80224 49.746 12.5356V36.9194C49.746 43.6528 44.2875 49.1113 37.5541 49.1113H13.1704C6.43701 49.1113 0.978516 43.6528 0.978516 36.9194V12.5356ZM13.1704 5.2205C9.13036 5.2205 5.85527 8.49559 5.85527 12.5356V36.9194C5.85527 40.9594 9.13036 44.2345 13.1704 44.2345H37.5541C41.5942 44.2345 44.8693 40.9594 44.8693 36.9194V12.5356C44.8693 8.49559 41.5942 5.2205 37.5541 5.2205H13.1704ZM25.3623 14.974C26.709 14.974 27.8006 16.0657 27.8006 17.4124V26.1559L30.9532 23.0033C31.9055 22.0511 33.4493 22.0511 34.4016 23.0033C35.3538 23.9556 35.3538 25.4995 34.4016 26.4517L27.0865 33.7668C26.1342 34.7191 24.5903 34.7191 23.6381 33.7668L16.323 26.4517C15.3707 25.4995 15.3707 23.9556 16.323 23.0033C17.2752 22.0511 18.8191 22.0511 19.7713 23.0033L22.9239 26.1559V17.4124C22.9239 16.0657 24.0156 14.974 25.3623 14.974Z" fill="#F5F1E9"/>
</svg>
