<svg width="47" height="47" viewBox="0 0 47 47" fill="none" xmlns="http://www.w3.org/2000/svg">
<path fill-rule="evenodd" clip-rule="evenodd" d="M29.5137 2.6821C32.183 0.0128714 36.5106 0.0128657 39.1799 2.6821L44.1274 7.62966C46.7967 10.2989 46.7967 14.6266 44.1274 17.2958L26.8445 34.5787C26.4172 35.006 25.8377 35.246 25.2335 35.246H13.8418C12.5836 35.246 11.5635 34.226 11.5635 32.9677V21.576C11.5635 20.9718 11.8036 20.3923 12.2308 19.965L29.5137 2.6821ZM35.9578 5.90414C35.0681 5.0144 33.6255 5.0144 32.7358 5.90414L30.7339 7.90606L38.9035 16.0757L40.9054 14.0737C41.7951 13.184 41.7951 11.7414 40.9054 10.8517L35.9578 5.90414ZM35.6814 19.2977L27.5118 11.1281L16.1202 22.5198V30.6894H24.2898L35.6814 19.2977ZM11.5635 5.62773C7.78866 5.62773 4.72853 8.68786 4.72853 12.4627V35.246C4.72853 39.0209 7.78866 42.081 11.5635 42.081H34.3468C38.1217 42.081 41.1818 39.0209 41.1818 35.246V28.411C41.1818 27.1527 42.2018 26.1327 43.4601 26.1327C44.7184 26.1327 45.7385 27.1527 45.7385 28.411V35.246C45.7385 41.5374 40.6382 46.6377 34.3468 46.6377H11.5635C5.27209 46.6377 0.171875 41.5374 0.171875 35.246V12.4627C0.171875 6.17129 5.27209 1.07107 11.5635 1.07107H18.3985C19.6568 1.07107 20.6768 2.09112 20.6768 3.3494C20.6768 4.60769 19.6568 5.62773 18.3985 5.62773H11.5635Z" fill="#F5F1E9"/>
</svg>
