<svg width="253" height="195" viewBox="0 0 253 195" fill="none" xmlns="http://www.w3.org/2000/svg">
<g clip-path="url(#clip0_493_792)">
<path d="M28.4964 69.7273C28.4964 69.7273 -17.3597 149.693 7.26356 166.371C31.8869 183.049 95.6198 195.001 121.236 194.967C146.818 194.933 224.592 189.625 247.88 120.789C271.168 51.9534 206.065 4.93281 146.887 7.22733C87.7088 9.52185 28.4964 69.7273 28.4964 69.7273Z" fill="#D9918D"/>
<path d="M225.107 43.8723C163.565 47.2627 102.059 50.6531 40.5175 54.0778C35.8942 52.2285 31.2366 50.4134 26.5791 48.5641C26.7846 46.6805 26.9901 44.8312 27.1955 42.9477C63.0175 28.7696 98.7709 14.386 134.764 0.721643C138.942 -0.8537 144.867 0.516163 149.49 1.98877C179.216 11.6121 208.874 21.5093 238.428 31.6463C242.23 32.9477 245.449 35.9271 252.196 40.1737C240.449 41.7833 232.778 42.8107 225.107 43.8723ZM212.504 34.6942C190.86 26.1668 167.298 16.8175 143.634 7.74219C141.305 6.85178 138.017 7.05726 135.689 8.01616C108.394 19.1463 81.2024 30.4819 55.0038 41.3723C107.606 39.1463 160.963 36.886 212.504 34.6942Z" fill="black"/>
<path d="M30.8926 140.277C60.1392 139.49 89.42 138.736 118.667 137.846C158.187 136.647 197.673 135.312 237.194 134.044C236.68 141.613 236.167 149.216 235.653 156.784C234.42 155.551 233.221 154.353 231.988 153.12C233.393 142.538 227.228 141.065 218.701 141.51C158.632 144.729 98.5296 147.846 39.6939 150.894C37.1939 156.202 35.1392 160.551 33.1186 164.901C32.3652 156.716 31.646 148.496 30.8926 140.277Z" fill="black"/>
<path d="M43.9067 61.0969C52.0232 59.5558 60.1739 58.0147 71.3725 55.8914C72.2972 79.0079 72.7424 99.7613 74.1122 120.412C74.8999 132.707 66.578 132.022 58.7013 133.254C49.1807 134.727 44.6259 130.72 44.5917 121.405C44.5232 109.522 44.9341 97.6038 44.7287 85.7202C44.6259 79.5558 43.7013 73.4257 43.1533 67.2613C43.3588 65.2065 43.6328 63.1517 43.9067 61.0969ZM56.3383 124.727C65.2424 120.549 67.7081 93.0147 61.6122 65.9599C53.3246 71.8161 50.5506 102.706 56.3383 124.727Z" fill="black"/>
<path d="M54.1831 162.946C68.6009 159.898 82.9502 154.521 97.4023 154.179C140.621 153.22 183.875 154.247 227.128 154.453C228.738 154.453 230.348 153.597 231.957 153.152C233.19 154.384 234.389 155.583 235.622 156.816C227.779 158.357 219.937 159.932 212.094 161.474C168.978 162.33 125.895 163.254 82.779 164.008C74.4228 164.145 66.0324 163.563 57.642 163.289C56.5119 163.186 55.3475 163.049 54.1831 162.946Z" fill="black"/>
<path d="M89.5254 126.917C88.1898 104.452 86.8542 82.0201 85.5186 60.1366C105.964 51.8831 109.525 53.3215 111.204 72.4311C112.471 87.0201 112.95 101.986 110.93 116.369C110.176 121.815 101.512 126.198 96.4432 131.061C94.1144 129.691 91.8199 128.322 89.5254 126.917ZM96.3747 118.459C98.0871 118.63 99.7994 118.767 101.512 118.938C101.512 100.89 101.512 82.8421 101.512 64.7941C99.7994 64.7941 98.0871 64.8284 96.3747 64.8284C96.3747 82.7051 96.3747 100.582 96.3747 118.459Z" fill="black"/>
<path d="M129.866 129.317C128.633 109.248 127.332 90.6864 126.476 72.0563C126.031 62.5357 126.373 53.3576 139.901 53.1179C153.12 52.8782 152.058 63.1179 152.777 70.8919C153.907 82.7412 152.195 94.9672 154.01 106.645C157.127 126.474 146.647 130.173 129.866 129.317ZM136.202 60.4124C136.202 81.2001 136.202 101.132 136.202 121.782C150.277 114.762 150.175 69.6932 136.202 60.4124Z" fill="black"/>
<path d="M192.671 120.07C168.322 128.152 168.219 128.152 167.945 106.508C167.739 90.2753 167.911 74.0082 167.911 57.5013C174.041 57.8781 179.486 58.2205 186.849 58.7C188.835 79.4534 190.787 100.036 192.671 120.07ZM176.541 117.604C179.383 117.262 182.226 116.919 185.068 116.577C183.219 99.0767 181.335 81.6109 179.486 64.1109C177.226 64.3507 174.931 64.5904 172.671 64.8301C173.972 82.3986 175.274 100.001 176.541 117.604Z" fill="black"/>
<path d="M204.762 120.824C204.762 102.229 204.214 83.5642 205.241 65.0026C205.447 61.4067 211.851 58.119 215.412 54.7286C218.734 58.2217 224.659 61.5437 224.899 65.208C225.892 80.4478 226.44 95.9615 224.419 110.996C223.7 116.441 215.241 120.824 210.31 125.688C208.46 124.078 206.611 122.434 204.762 120.824ZM216.474 65.0026C215.447 64.9683 214.453 64.9341 213.426 64.9341C213.426 81.2354 213.426 97.5711 213.426 113.872C214.453 113.907 215.447 113.941 216.474 113.975C216.474 97.6395 216.474 81.3039 216.474 65.0026Z" fill="black"/>
<path d="M212.507 34.694C160.966 36.8857 107.61 39.146 55.0073 41.372C81.2402 30.4816 108.432 19.1118 135.692 8.01587C138.021 7.05697 141.309 6.85149 143.637 7.7419C167.302 16.8172 190.863 26.1666 212.507 34.694Z" fill="#D9918D"/>
</g>
<defs>
<clipPath id="clip0_493_792">
<rect width="252.706" height="195" fill="white"/>
</clipPath>
</defs>
</svg>
