<svg width="269" height="208" viewBox="0 0 269 208" fill="none" xmlns="http://www.w3.org/2000/svg">
<path d="M167.073 29.9264C178.617 42.5772 190.128 55.2622 201.672 67.9129C201.1 67.9472 200.561 68.0158 199.989 67.9815C164.414 67.1587 164.448 67.1587 164.549 103.225C164.616 130.275 164.549 157.325 164.549 184.067C176.8 184.067 187.099 184.067 201.638 184.067C201.638 144.674 201.638 106.277 201.638 67.8444C209.278 75.0097 217.255 81.8665 224.491 89.4089C230.986 96.1628 236.674 103.705 242.732 110.871C240.41 113.442 238.088 115.979 235.766 118.55C239.804 119.579 243.809 120.573 246.165 121.156C246.165 128.047 246.165 134.389 246.165 140.766C221.462 176.764 191.44 202.991 144.759 201.757C131.566 201.414 118.272 205.014 105.045 206.9C83.0001 210.019 63.1093 207.345 49.9161 186.124C59.71 185.472 69.504 184.821 79.8364 184.169C79.8364 163.496 79.8364 143.954 79.8364 124.516C74.3168 124.516 69.8069 125.338 65.7345 124.378C49.6805 120.504 46.2812 128.732 46.9207 142.789C47.5601 156.948 46.988 171.142 46.9543 185.301C20.063 178.033 3.47052 126.538 10.37 98.2541C17.9763 95.3743 26.0875 93.3515 33.1553 89.4432C69.6722 69.1472 105.886 48.3026 142.336 27.8694C145.365 26.1895 149.101 25.8467 155.159 24.1668C151.423 32.4634 149.336 37.0918 147.25 41.7544C148.024 42.4058 148.798 43.0229 149.572 43.6743C155.361 39.0802 161.217 34.4862 167.073 29.9264ZM140.014 93.4544C125.643 93.4544 114.94 93.4544 101.679 93.4544C101.679 117.35 101.309 139.909 101.78 162.468C102.251 184.135 110.665 190.341 131.97 184.821C135.167 183.998 139.61 179.233 139.677 176.216C140.283 148.754 140.014 121.259 140.014 93.4544Z" fill="#D9918D"/>
<path d="M167.085 29.9287C161.228 34.5227 155.372 39.0825 149.55 43.6765C148.776 43.0251 148.002 42.408 147.227 41.7566C149.314 37.094 151.434 32.4314 155.137 24.169C149.079 25.8489 145.343 26.1917 142.314 27.8716C105.898 48.3048 69.6836 69.1494 33.1666 89.4454C26.0988 93.3538 18.0213 95.3765 10.3813 98.2564C11.0545 96.0622 11.7276 93.868 12.4007 91.6739C13.9826 91.6053 15.8673 92.0853 17.0789 91.3996C52.3506 70.8979 87.5887 50.2933 122.827 29.6887C129.491 25.7803 136.121 21.7691 142.785 17.8265C142.28 16.6951 141.741 15.598 141.237 14.4667C137.097 14.8781 132.924 15.3238 128.784 15.7352C128.986 12.6839 128.616 7.19849 129.524 6.9585C140.698 4.07866 151.973 1.19882 163.416 0.0674523C168.633 -0.446805 174.253 2.94729 179.672 4.55863C177.72 10.5583 176.138 16.7294 173.614 22.4548C172.335 25.3346 169.306 27.4602 167.085 29.9287ZM146.083 16.8322C147.126 16.4208 148.136 16.0094 149.146 15.598C148.607 14.9124 148.102 13.781 147.497 13.7124C146.622 13.6096 145.646 14.261 144.703 14.6038C145.141 15.3238 145.612 16.0437 146.083 16.8322Z" fill="#171412"/>
<path d="M128.748 15.7338C132.888 15.3224 137.061 14.8767 141.201 14.4653C141.705 15.5967 142.244 16.6938 142.749 17.8251C136.085 21.7678 129.488 25.779 122.791 29.6873C87.5527 50.2919 52.3483 70.8965 17.043 91.3982C15.8313 92.1182 13.9466 91.6039 12.3647 91.6725C18.0863 68.2909 35.1836 53.8917 54.4686 44.3608C78.1963 32.6015 103.91 25.059 128.748 15.7338Z" fill="#D9918D"/>
<path d="M47.0252 185.303C47.0589 171.11 47.631 156.916 46.9916 142.791C46.3521 128.701 49.7514 120.507 65.8054 124.381C69.8778 125.375 74.3877 124.518 79.9073 124.518C79.9073 143.957 79.9073 163.499 79.9073 184.172C69.5749 184.858 59.7809 185.509 49.987 186.126C48.8426 186.297 47.8666 186.023 47.0252 185.303ZM57.9971 132.438C57.9971 149.031 57.9971 164.63 57.9971 181.292C63.8197 180.709 68.4306 180.263 73.0414 179.818C73.0414 162.642 73.0414 146.871 73.0414 130.209C67.3872 131.032 62.6417 131.752 57.9971 132.438Z" fill="#171412"/>
<path d="M140.017 93.4572C140.017 121.261 140.252 148.723 139.68 176.184C139.613 179.201 135.17 183.967 131.973 184.789C110.668 190.309 102.254 184.104 101.783 162.436C101.312 139.878 101.682 117.319 101.682 93.4229C114.943 93.4572 125.645 93.4572 140.017 93.4572ZM111.443 100.588C111.443 127.981 111.443 153.762 111.443 179.887C118.174 179.887 123.929 179.887 130.256 179.887C130.256 153.728 130.256 128.495 130.256 102.028C123.862 101.548 118.174 101.103 111.443 100.588Z" fill="#171412"/>
<path d="M201.64 67.8823C201.64 106.28 201.64 144.712 201.64 184.104C187.1 184.104 176.768 184.104 164.551 184.104C164.551 157.329 164.584 130.279 164.551 103.263C164.483 67.1623 164.45 67.1623 199.991 68.0194C200.529 67.9851 201.101 67.9166 201.64 67.8823ZM190.399 180.299C190.399 145.809 190.399 111.971 190.399 77.7217C183.903 77.3789 178.484 77.1046 172.796 76.7961C172.796 111.183 172.796 145.432 172.796 180.265C179.056 180.299 184.441 180.299 190.399 180.299Z" fill="#171412"/>
<path d="M146.071 16.8341C145.6 16.0798 145.128 15.3256 144.657 14.6056C145.6 14.2628 146.576 13.6114 147.451 13.7143C148.056 13.7828 148.561 14.9485 149.1 15.5999C148.124 15.977 147.114 16.3884 146.071 16.8341Z" fill="#E6A676"/>
<path d="M57.9971 132.44C62.6416 131.754 67.3871 131.034 73.0414 130.211C73.0414 146.873 73.0414 162.644 73.0414 179.82C68.4305 180.265 63.8532 180.711 57.9971 181.294C57.9971 164.598 57.9971 148.999 57.9971 132.44Z" fill="#CFA9B5"/>
<path d="M111.438 100.587C118.202 101.101 123.89 101.547 130.251 102.061C130.251 128.528 130.251 153.761 130.251 179.92C123.924 179.92 118.169 179.92 111.438 179.92C111.438 153.727 111.438 127.98 111.438 100.587Z" fill="#CFA9B5"/>
<path d="M190.4 180.297C184.443 180.297 179.058 180.297 172.798 180.297C172.798 145.464 172.798 111.215 172.798 76.8281C178.486 77.1366 183.904 77.4109 190.4 77.7538C190.4 111.969 190.4 145.807 190.4 180.297Z" fill="#CFA9B5"/>
</svg>
