<svg width="219" height="201" viewBox="0 0 219 201" fill="none" xmlns="http://www.w3.org/2000/svg">
<g clip-path="url(#clip0_493_816)">
<path d="M169.566 46.5579C185.095 51.9657 200.352 57.7662 207.844 74.2917C193.856 74.4125 179.838 74.1406 165.881 74.8959C162.225 75.1074 155.971 78.1889 155.639 80.636C153.555 95.1373 152.83 109.85 151.682 124.382C172.739 124.382 190.895 124.382 207.421 124.382C208.69 108.551 209.838 94.231 210.956 79.911C223.372 93.3549 218.448 109.669 215.366 123.717C205.941 166.647 166.636 198.338 123.102 200C113.797 200.362 104.371 197.764 95.0056 196.495C95.791 195.227 97.5735 193.263 97.2412 192.81C84.19 174.411 70.9273 156.164 55.8822 135.378C42.831 156.073 32.2572 172.78 21.7135 189.517C13.4055 183.535 -0.340566 182.659 -0.00824429 168.339C0.565766 143.928 34.523 79.8203 44.7041 70.9987C44.3416 84.7145 45.9126 97.4032 62.3776 101.149C79.0239 104.926 93.4044 99.3065 96.6974 88.0982C100.987 73.476 92.5585 60.9988 74.4016 55.1077C71.5618 54.2013 68.6615 53.4461 65.7915 52.6002C77.604 36.5883 95.3681 37.1623 112.468 35.8934C109.567 42.4794 106.667 49.0655 103.102 57.1016C123.887 55.8629 142.286 55.0775 160.594 53.3554C163.766 53.0835 166.576 48.9446 169.566 46.5579ZM128.147 89.1556C131.772 90.8172 134.099 91.8745 136.395 92.9621C137.09 92.2975 137.754 91.6026 138.449 90.938C135.186 85.3792 131.923 79.7901 127.603 72.4186C120.896 78.8234 115.791 83.6571 110.715 88.5211C112.135 88.9139 113.555 89.3368 114.975 89.7296C115.73 93.657 118.389 98.7022 116.878 101.361C109.779 113.778 101.501 125.53 93.6763 137.523C92.1053 139.91 90.625 142.387 89.1144 144.804C110.987 132.69 121.44 112.962 128.147 89.1556Z" fill="#D9918D"/>
<path d="M21.6932 189.546C32.267 172.809 42.8107 156.072 55.8619 135.408C70.907 156.193 84.1696 174.471 97.2208 192.839C97.5531 193.322 95.7707 195.256 94.9852 196.525C69.1849 197.884 43.3847 199.244 15.6812 200.694C18.1887 196.072 19.9409 192.809 21.6932 189.546Z" fill="#171412"/>
<path d="M169.597 46.5553C166.606 48.9419 163.797 53.0808 160.594 53.383C142.286 55.0748 123.888 55.8905 103.103 57.1291C106.667 49.0628 109.568 42.507 112.468 35.921C119.114 24.3501 125.731 12.8095 133.102 0C145.881 16.314 157.754 31.4497 169.597 46.5553ZM121.139 34.6219C118.631 39.0629 116.124 43.5341 112.891 49.2743C129.507 48.0658 143.585 47.0688 159.084 45.951C154.492 40.2109 151.108 36.0116 147.724 31.782C143.313 25.5888 138.903 19.3955 133.404 11.7521C128.57 20.755 124.855 27.7035 121.139 34.6219Z" fill="#171412"/>
<path d="M210.97 79.9404C209.822 94.2605 208.674 108.55 207.436 124.411C190.91 124.411 172.753 124.411 151.696 124.411C152.875 109.91 153.569 95.197 155.654 80.6655C156.016 78.2184 162.24 75.1369 165.895 74.9254C179.853 74.1399 193.871 74.442 207.859 74.3212C208.886 76.164 209.943 78.0371 210.97 79.9404ZM159.219 118.127C173.871 118.127 187.104 118.127 201.182 118.127C201.182 105.65 201.182 93.8979 201.182 80.303C187.919 81.0884 175.231 81.8135 161.666 82.599C161.092 88.7923 160.548 93.6865 160.216 98.6109C159.763 104.955 159.551 111.3 159.219 118.127Z" fill="#171412"/>
<path d="M65.8086 52.5979C68.6786 53.4136 71.5789 54.1689 74.4187 55.1054C92.5756 60.9966 101.004 73.4737 96.7145 88.0959C93.4215 99.3042 79.041 104.923 62.3947 101.147C45.9599 97.4311 44.3587 84.7123 44.7212 70.9964C51.7604 64.8636 58.7694 58.7307 65.8086 52.5979ZM71.3674 95.1955C84.5092 95.4976 90.1889 91.4493 90.4306 81.6307C90.7025 70.8152 81.186 61.7821 68.6786 61.3289C58.437 60.9664 52.6063 66.1627 51.7906 76.3136C50.7937 88.6397 57.4401 94.8632 71.3674 95.1955Z" fill="#171412"/>
<path d="M128.167 89.1537C121.461 112.96 111.008 132.688 89.1348 144.803C90.6453 142.386 92.1257 139.908 93.6966 137.522C101.521 125.528 109.799 113.776 116.899 101.359C118.409 98.7004 115.751 93.6552 114.995 89.7278C113.576 89.335 112.156 88.912 110.736 88.5193C115.841 83.6553 120.917 78.8216 127.624 72.4168C131.944 79.7883 135.207 85.3471 138.469 90.9362C137.775 91.6008 137.11 92.2957 136.415 92.9603C134.119 91.8727 131.793 90.8153 128.167 89.1537Z" fill="#171412"/>
<path d="M147.676 31.7832C151.059 36.0128 154.443 40.2121 159.035 45.9522C143.537 47.07 129.458 48.0972 112.842 49.2754C116.075 43.5353 118.582 39.0943 121.09 34.623C129.972 33.6865 138.824 32.7197 147.676 31.7832Z" fill="#CFA9B5"/>
<path d="M159.225 118.126C159.557 111.268 159.799 104.954 160.191 98.6396C160.524 93.7152 161.067 88.821 161.641 82.6277C175.236 81.8422 187.925 81.0869 201.158 80.3317C201.158 93.8964 201.158 105.679 201.158 118.156C187.079 118.126 173.847 118.126 159.225 118.126Z" fill="#CFA9B5"/>
<path d="M71.3624 95.197C57.4351 94.8949 50.7887 88.6412 51.7856 76.3151C52.6013 66.1642 58.4623 60.9679 68.6736 61.3304C81.1508 61.7836 90.6975 70.8167 90.4256 81.6323C90.1839 91.4207 84.5042 95.4689 71.3624 95.197Z" fill="#CFA9B5"/>
</g>
<defs>
<clipPath id="clip0_493_816">
<rect width="219" height="200.692" fill="white"/>
</clipPath>
</defs>
</svg>
