<?xml version="1.0" encoding="UTF-8"?>
<svg version="1.1" xmlns="http://www.w3.org/2000/svg" width="687" height="305">
<path d="M0 0 C5.00012797 3.60474342 8.95061465 7.93956414 10.6875 13.9375 C10.91939165 17.21333649 10.87612981 20.46817003 10.8125 23.75 C10.80347656 24.63365234 10.79445312 25.51730469 10.78515625 26.42773438 C10.76169637 28.59777359 10.72582865 30.76767247 10.6875 32.9375 C11.14125 32.2775 11.595 31.6175 12.0625 30.9375 C12.59875 30.2775 13.135 29.6175 13.6875 28.9375 C14.3475 28.9375 15.0075 28.9375 15.6875 28.9375 C15.6875 28.2775 15.6875 27.6175 15.6875 26.9375 C19.77332818 24.89458591 22.27541254 24.81100959 26.6875 25.9375 C30.01227108 27.23046653 30.61723147 27.8320972 32.6875 30.9375 C34.03229387 38.19313204 31.78585889 45.58785836 30.17895508 52.6262207 C29.05510277 57.6956911 28.42589344 62.43614348 28.25 67.625 C27.84317905 76.98188194 25.18487914 86.67487321 20.6875 94.9375 C20.0275 94.9375 19.3675 94.9375 18.6875 94.9375 C18.3471875 95.7728125 18.3471875 95.7728125 18 96.625 C10.5287225 109.78867941 -6.51794389 117.97944003 -20.390625 122.23828125 C-31.09185227 124.79913644 -41.73608806 122.16521096 -51.23583984 116.86425781 C-58.91216387 112.14370305 -68.07393421 105.88244809 -70.9609375 96.92578125 C-71.82835962 92.02002723 -72.13436326 88.39156577 -69.6875 84.0625 C-64.97409873 79.84524624 -59.81967181 79.46785368 -53.70703125 79.6328125 C-49.9611874 80.10944516 -48.06194455 81.37987716 -45.3125 83.9375 C-40.3125 90.64837533 -40.3125 90.64837533 -40.3125 93.9375 C-33.85622041 96.33098768 -28.72360106 97.7170219 -22.12890625 95.29296875 C-6.83939324 87.934493 4.79036622 79.44492082 10.6875 62.9375 C12.23585022 56.25462068 11.59729388 50.47183608 9.6875 43.9375 C9.31625 45.855625 9.31625 45.855625 8.9375 47.8125 C6.55968414 58.21951601 2.41700388 67.51284546 -6.10546875 74.3828125 C-16.31088831 80.68822047 -31.32600923 81.26637425 -42.74609375 78.73046875 C-50.63744853 76.29219627 -56.99118727 72.6797418 -61.80078125 65.8125 C-65.78003346 62.84198513 -69.79700483 63.39699391 -74.625 63.5 C-75.54990234 63.49291016 -76.47480469 63.48582031 -77.42773438 63.47851562 C-83.90212324 63.53833585 -88.8224338 64.31995035 -94.125 68.296875 C-96.50122095 71.07955479 -97.32098822 72.55999777 -97.23828125 76.23828125 C-96.17486117 80.48747457 -94.27830665 83.1186306 -91.5 86.375 C-86.04024718 93.15569195 -81.52252687 98.79877032 -81.9921875 107.89453125 C-82.45802919 110.86569225 -83.36419355 112.65327865 -85.3125 114.9375 C-90.65724168 118.77475043 -95.78033271 119.63106989 -102.3125 118.9375 C-107.01034081 117.22098124 -109.58836044 115.12100004 -112.3125 110.9375 C-115.25645847 104.16639553 -114.32927637 98.05493457 -113.3125 90.9375 C-113.00293457 85.74165678 -113.61666759 82.54807756 -116 77.9375 C-122.05306507 65.53015098 -125.48374683 53.52836894 -125.5625 39.6875 C-125.5934375 38.35138672 -125.5934375 38.35138672 -125.625 36.98828125 C-125.68368005 26.88064201 -123.36548024 18.36735704 -116.3125 10.9375 C-113.875 9.125 -113.875 9.125 -111.3125 7.9375 C-109.9203125 7.24333984 -109.9203125 7.24333984 -108.5 6.53515625 C-102.8479722 4.12550274 -96.7633319 3.27731565 -90.75 2.1875 C-89.54408203 1.95417969 -88.33816406 1.72085938 -87.09570312 1.48046875 C-85.92845703 1.26519531 -84.76121094 1.04992187 -83.55859375 0.828125 C-82.50341553 0.63250977 -81.4482373 0.43689453 -80.36108398 0.23535156 C-75.65011355 -0.22491783 -72.41714946 0.17651926 -68.5 2.875 C-66.2764187 4.97151951 -65.38126307 5.863077 -65.1875 8.890625 C-65.38031534 12.43360693 -65.55979228 15.00337042 -67.8359375 17.828125 C-72.8367099 22.17478793 -76.97405499 23.31820314 -83.546875 23.30859375 C-87.56214538 22.76982159 -90.56222645 21.02320403 -93.98828125 18.93359375 C-97.52515416 17.41779107 -99.99813479 18.4868605 -103.5 19.6875 C-105.99355954 21.40719623 -106.38473947 23.08794981 -107.3125 25.9375 C-107.6528125 26.68773437 -107.993125 27.43796875 -108.34375 28.2109375 C-110.36789397 33.90792335 -110.37181925 40.84244551 -108.4140625 46.5625 C-107.24737831 48.96438024 -107.24737831 48.96438024 -105.3125 51.9375 C-97.03060269 51.51278732 -90.78816054 45.5442706 -84.87890625 40.23828125 C-83.3125 38.9375 -83.3125 38.9375 -80.5 37.4375 C-77.52409525 35.3968796 -77.3495552 33.32521366 -76.3125 29.9375 C-73.95344757 26.39892135 -71.49807706 25.52106779 -67.5 24.5625 C-62.89372832 23.81736782 -59.62462043 23.90826685 -55.3125 25.9375 C-49.68631972 31.17115607 -47.75382411 37.85638814 -45.24609375 44.95703125 C-44.72208984 46.43236328 -44.72208984 46.43236328 -44.1875 47.9375 C-43.87554687 48.845 -43.56359375 49.7525 -43.2421875 50.6875 C-42.41938962 53.08626853 -42.41938962 53.08626853 -40.3125 54.9375 C-34.49408425 55.53940508 -31.02926513 54.71126167 -25.9765625 51.8125 C-24.3125 50.9375 -24.3125 50.9375 -22.3125 50.9375 C-19.94573187 46.35188675 -19.40056474 41.9763287 -20.3125 36.9375 C-22.48451193 31.95386526 -25.30309825 27.45160263 -28.3125 22.9375 C-29.6938253 16.77466406 -29.68073295 11.46956745 -26.3125 5.9375 C-18.71127408 -0.81600555 -9.81890079 -3.14945874 0 0 Z M9.6875 35.9375 C10.6875 37.9375 10.6875 37.9375 10.6875 37.9375 Z " fill="#000000" transform="translate(162.3125,109.0625)"/>
<path d="M0 0 C4.03178422 3.82973581 5.20440497 7.14221719 5.75 12.625 C5.68368131 18.26208848 3.13115081 21.72950316 0.12939453 26.34985352 C-4.45910792 33.96824708 -4.50442696 42.4975623 -4.875 51.1875 C-3.98039062 50.6821875 -3.08578125 50.176875 -2.1640625 49.65625 C11.14118387 42.39901072 11.14118387 42.39901072 19.125 44.1875 C25.14578381 46.32428798 29.36358881 50.67120137 32.1796875 56.29296875 C32.85865262 57.82195609 33.51719764 59.36015557 34.15625 60.90625 C35.06121805 63.03730379 36.08673246 65.02774787 37.1875 67.0625 C38.8713314 70.30615972 39.73098305 73.44503147 40.5625 77 C41.59218327 81.25864588 41.59218327 81.25864588 44.6875 84.3125 C45.491875 84.60125 46.29625 84.89 47.125 85.1875 C47.785 85.5175 48.445 85.8475 49.125 86.1875 C49.10189984 82.39454411 49.02418684 78.60449341 48.9375 74.8125 C48.93169922 73.75160156 48.92589844 72.69070312 48.91992188 71.59765625 C48.73474461 64.89012409 47.66739469 60.16181676 44.24511719 54.35839844 C42.36496648 50.71447951 42.49971125 48.21713864 43.125 44.1875 C45.94584924 40.19991207 48.86161497 39.54626863 53.41918945 38.71801758 C54.20898193 38.58419678 54.99877441 38.45037598 55.8125 38.3125 C61.18279462 37.2888524 65.54492179 36.44661099 69.9375 33 C75.15531339 28.96898338 80.70182288 28.86050189 87.125 29.1875 C92.32577753 29.93550871 96.58979437 31.07595634 100.125 35.125 C102.90329837 39.37926938 104.3679983 42.83898901 105.4375 47.8125 C107.61840394 56.76511066 111.30520254 64.81755725 118.125 71.1875 C119.011875 71.703125 119.89875 72.21875 120.8125 72.75 C124.06297345 74.77056458 124.90110426 76.583807 126.125 80.1875 C126.31909616 84.21693625 125.80811913 87.32221577 123.25 90.5625 C118.50257833 94.19288128 115.08238279 95.43609421 109.125 95.1875 C104.60042739 93.97140934 100.31389598 92.28194799 96.125 90.1875 C96.125 89.5275 96.125 88.8675 96.125 88.1875 C95.465 88.1875 94.805 88.1875 94.125 88.1875 C91.62371052 80.51613448 90.75964019 72.57987662 89.625 64.61523438 C89.46 63.49310547 89.295 62.37097656 89.125 61.21484375 C88.9084375 59.69491821 88.9084375 59.69491821 88.6875 58.14428711 C87.76633135 52.2681636 87.76633135 52.2681636 84.27734375 47.859375 C79.65857251 46.41758071 75.10430337 45.87960837 70.3125 46.625 C66.00076052 49.70481391 64.15563687 55.11436513 63.125 60.1875 C62.69411587 68.94881063 65.11457156 75.62584549 69.125 83.3125 C73.5822475 91.95245438 77.18334641 99.30697375 74.578125 109.28125 C72.38378649 114.00114794 68.57385786 116.35573306 63.91796875 118.42578125 C58.98086439 119.77226426 54.79975194 119.19411522 50.125 117.1875 C47.57835308 115.15328813 45.85693824 112.93268102 44.125 110.1875 C43.50625 109.218125 42.8875 108.24875 42.25 107.25 C41.693125 106.2290625 41.693125 106.2290625 41.125 105.1875 C36.61324355 106.595424 32.29139194 108.06489015 28.0625 110.1875 C16.65306288 115.40267178 -0.89270296 118.57241105 -12.875 114.1875 C-16.125 112.3125 -16.125 112.3125 -18.875 110.1875 C-19.761875 109.56875 -20.64875 108.95 -21.5625 108.3125 C-25.95854099 104.27289476 -27.01304083 99.91793228 -27.875 94.1875 C-30.80747401 96.35441265 -33.71769972 98.54945907 -36.625 100.75 C-37.45 101.35908203 -38.275 101.96816406 -39.125 102.59570312 C-44.07724961 106.36979658 -47.22426733 109.52920527 -49.875 115.1875 C-50.535 115.1875 -51.195 115.1875 -51.875 115.1875 C-51.875 115.8475 -51.875 116.5075 -51.875 117.1875 C-58.00690617 119.69987822 -62.36815543 120.78754375 -68.875 119.1875 C-73.74004753 116.70907956 -76.02202925 114.33464098 -77.875 109.1875 C-78.43813131 105.32602816 -78.06608704 103.56967408 -76.3125 100.0625 C-71.26236104 94.10592584 -65.4921519 92.64119244 -58.125 91.375 C-51.08189437 90.01133027 -45.81348051 87.96726588 -39.94140625 83.67578125 C-37.875 82.1875 -37.875 82.1875 -34.875 81.1875 C-33.82068157 79.32418276 -33.82068157 79.32418276 -32.875 77.1875 C-31.94026361 75.94029458 -30.98045307 74.71159616 -30 73.5 C-20.0039747 60.24492995 -17.99725272 42.3474064 -19.875 26.1875 C-20.93599013 21.28563772 -22.81145175 16.74606567 -24.875 12.1875 C-26.94238874 7.55439428 -26.94238874 7.55439428 -26.3125 4.125 C-24.34953262 0.11371884 -22.19278411 -1.84965178 -18.05078125 -3.5703125 C-11.13432824 -5.71726648 -5.62769054 -4.50914335 0 0 Z M5.125 78.1875 C2.67340116 81.21340285 1.30684488 84.04447507 0.6875 87.9375 C1.22752223 90.71475718 1.80065672 91.58450464 4.125 93.1875 C6.80678696 94.08142899 8.4506847 94.37140417 11.1875 93.625 C14.5833408 91.10550522 16.6245361 88.16775283 17.66796875 84.0390625 C18.41444729 78.89275165 17.88674926 75.05821855 16.125 70.1875 C12.5407672 70.1875 7.65912892 75.89107156 5.125 78.1875 Z " fill="#000000" transform="translate(433.875,71.8125)"/>
<path d="M0 0 C8.55426618 6.45345923 12.82761764 13.12393701 14.625 23.6875 C15.28315312 31.41270712 15.04487112 38.10999949 10.625 44.6875 C4.07009134 52.27828801 -5.64096064 55.61037269 -15.375 56.6875 C-26.9436938 57.41372858 -38.18218335 56.63330971 -48.375 50.6875 C-51.70769839 57.35289677 -48.11928505 70.2533299 -46.2734375 77.125 C-45.45767836 79.45168693 -44.56044913 81.1621566 -43.1875 83.1875 C-40.53071305 88.31784721 -40.59943666 93.02051246 -41.375 98.6875 C-42.8289644 102.78697036 -44.70774898 105.24266599 -48.375 107.6875 C-52.40608402 108.67625646 -54.69571144 108.93570159 -58.625 107.5 C-63.72273201 104.14013117 -64.72600904 100.98337042 -65.95147705 95.22738647 C-66.65073407 91.0339102 -66.69934536 86.88812677 -66.7109375 82.64453125 C-66.71927109 81.69389801 -66.72760468 80.74326477 -66.7361908 79.76382446 C-66.75561727 76.67571976 -66.75563603 73.58815607 -66.75 70.5 C-66.74978851 69.44491241 -66.74957703 68.38982483 -66.74935913 67.30276489 C-66.71986973 52.50928744 -66.17351708 37.84552411 -64.6875 23.125 C-64.61335876 22.33026276 -64.53921753 21.53552551 -64.46282959 20.71670532 C-62.97615454 5.28040541 -62.97615454 5.28040541 -57.375 -0.3125 C-55.015625 -2.01953125 -55.015625 -2.01953125 -52.625 -3.125 C-51.84640625 -3.50269531 -51.0678125 -3.88039063 -50.265625 -4.26953125 C-33.98033478 -10.14544002 -14.59317976 -9.57071169 0 0 Z M-34.375 21.6875 C-29.63230885 26.87481844 -24.32863626 31.47972343 -17.1875 32.625 C-13.51423321 32.68521749 -11.54471281 32.4588101 -8.375 30.6875 C-6.15603864 28.86278109 -6.15603864 28.86278109 -6 26.25 C-6.1295165 23.58457824 -6.1295165 23.58457824 -8.125 21.9375 C-12.88314633 19.29408537 -17.63127407 19.50447783 -22.9375 19.5 C-23.70513672 19.48775391 -24.47277344 19.47550781 -25.26367188 19.46289062 C-29.15917874 19.45270185 -31.0616199 19.47857994 -34.375 21.6875 Z " fill="#000000" transform="translate(391.375,98.3125)"/>
<path d="M0 0 C2.46372063 2.84867698 2.98570914 4.29974797 3.0625 8.0625 C1.61045143 12.07698722 -0.2322463 13.11612315 -4 15 C-6.875 15.25 -6.875 15.25 -9 15 C-9 15.66 -9 16.32 -9 17 C-8.27554688 17.26039062 -7.55109375 17.52078125 -6.8046875 17.7890625 C-3.91260316 19.03773401 -1.66312874 20.51803041 0.875 22.375 C3.74805202 24.44785383 6.52463222 26.34535662 9.6875 27.9375 C15.17608996 31.35492394 20.30025096 36.64303076 22.5625 42.8359375 C24.63731997 53.0988863 23.26275991 63.50121875 17.48828125 72.3046875 C16.99714844 72.86414063 16.50601563 73.42359375 16 74 C15.34 74 14.68 74 14 74 C13.75121094 74.5878125 13.50242187 75.175625 13.24609375 75.78125 C9.51636472 82.42227223 1.84799111 85.97189731 -5.125 88.21875 C-18.64617232 91.89298161 -32.7654016 92.46620597 -45.40625 85.71484375 C-51.41479498 82.05704445 -54.76997321 78.70161557 -56.59375 71.73046875 C-57.26845401 67.818483 -57.36542222 65.70039258 -55.5 62.125 C-51.32682537 58.57780156 -47.82200496 57 -42.3125 57 C-38.30120808 58.21095605 -37.20072616 59.49513981 -35 63 C-34.690625 63.721875 -34.38125 64.44375 -34.0625 65.1875 C-33.08739761 67.17511313 -33.08739761 67.17511313 -30.875 68.3125 C-24.41125908 69.85817718 -18.76885528 67.93687178 -13 65 C-8.29406032 62.19581896 -8.29406032 62.19581896 -5 58 C-4.34 58 -3.68 58 -3 58 C-0.08215958 49.99867996 -0.08215958 49.99867996 -1.25 41.9375 C-1.8275 40.968125 -2.405 39.99875 -3 39 C-3.33 38.01 -3.66 37.02 -4 36 C-5.64242483 35.27566382 -7.3159383 34.62141646 -9 34 C-11.21251357 32.77323299 -13.39893858 31.49867337 -15.5625 30.1875 C-17.23505859 29.18783203 -17.23505859 29.18783203 -18.94140625 28.16796875 C-22.63115461 25.55262987 -25.36857426 22.99951486 -26.75 18.625 C-27.30280902 12.82050534 -27.52793524 8.56510028 -24.3203125 3.57421875 C-20.86700274 -0.54318904 -16.63267577 -2.10682845 -11.5 -2.9375 C-6.82749935 -3.26441557 -4.01724563 -2.41034738 0 0 Z " fill="#000000" transform="translate(571,108)"/>
<path d="M0 0 C2.92825936 3.00146584 4.37587544 4.92405587 4.6953125 9.140625 C4.67210937 10.02234375 4.64890625 10.9040625 4.625 11.8125 C4.60695313 12.70453125 4.58890625 13.5965625 4.5703125 14.515625 C4.54710937 15.19109375 4.52390625 15.8665625 4.5 16.5625 C2.37109375 17.76171875 2.37109375 17.76171875 -0.5 18.5625 C-3.40234375 17.33203125 -3.40234375 17.33203125 -6.4375 15.375 C-18.80610309 7.53889146 -29.43622509 5.71581457 -44 8.625 C-58.39248101 12.41619012 -68.83121495 19.28072912 -76.375 32.1875 C-77.106092 33.63455795 -77.81616339 35.09252051 -78.5 36.5625 C-78.80679688 37.18382812 -79.11359375 37.80515625 -79.4296875 38.4453125 C-85.50322873 52.2698492 -81.72100199 67.17383655 -76.57543945 80.59765625 C-67.53351828 103.8671038 -67.53351828 103.8671038 -49.5625 120 C-48.551875 120.185625 -47.54125 120.37125 -46.5 120.5625 C-45.84515625 120.69011719 -45.1903125 120.81773437 -44.515625 120.94921875 C-39.05751653 121.53954608 -36.19002792 119.99151184 -31.8125 116.75 C-30.94238281 116.04230469 -30.07226562 115.33460938 -29.17578125 114.60546875 C-26.37702548 112.4686085 -23.7485342 110.91898252 -20.5 109.5625 C-16.26766313 110.15651219 -13.95335008 111.21525313 -10.5625 113.8125 C-8.14357608 117.03773189 -8.04217554 118.62520961 -8.5 122.5625 C-10.6727464 123.76958133 -12.40458919 124.54743514 -14.875 124.9375 C-17.66806597 125.43763753 -17.66806597 125.43763753 -20.25 127.4375 C-27.8558239 132.4105387 -35.50677907 133.47192684 -44.5 132.5625 C-48.125 131.4375 -48.125 131.4375 -51.5 129.5625 C-52.27988281 129.1603125 -53.05976563 128.758125 -53.86328125 128.34375 C-67.57738991 120.85197592 -74.2470713 108.19519407 -79.81347656 94.16748047 C-81.51646632 89.88360314 -83.34694805 85.7191231 -85.3828125 81.58325195 C-92.2323849 67.61609605 -94.28684364 50.84394226 -89.4140625 35.79296875 C-87.15063449 30.26981749 -83.65017572 26.71267572 -79.5 22.5625 C-78.26617295 20.92015751 -77.03749679 19.27393934 -75.8125 17.625 C-72.34177503 13.22310492 -68.97245128 10.64204939 -64.0703125 7.99609375 C-61.37303677 6.49168616 -58.97963239 4.77584815 -56.5 2.9375 C-42.48967437 -6.97277729 -14.51302586 -11.16916955 0 0 Z " fill="#000000" transform="translate(318.5,79.4375)"/>
<path d="M0 0 C0.66 0.33 1.32 0.66 2 1 C2 1.66 2 2.32 2 3 C2.66 3 3.32 3 4 3 C6.13821689 11.87741835 6.15631284 20.46658278 5.92578125 29.54907227 C5.79259187 37.0633865 5.68890736 44.58689986 10.0234375 50.98828125 C11.18746094 52.13876953 11.18746094 52.13876953 12.375 53.3125 C20.88672183 61.92385737 20.88672183 61.92385737 21.375 66.5625 C20.82625483 71.59266409 20.82625483 71.59266409 19 74 C13.05742195 78.42532408 8.29754247 79.86354253 1 79 C-5.55847054 76.72275329 -9.47399569 71.77950785 -12.75 65.8125 C-17.80939205 52.51352662 -14.02289881 37.44826149 -9.62231445 24.53759766 C-7.85813681 19.14041585 -7.60740892 15.47752493 -9 10 C-9.66 9.01 -10.32 8.02 -11 7 C-10.9375 4.5 -10.9375 4.5 -10 2 C-6.47070713 -0.94107739 -4.34879805 -1.41042099 0 0 Z " fill="#000000" transform="translate(214,116)"/>
<path d="M0 0 C2.98749554 2.13392538 3.73040962 3.64001279 4.4375 7.20703125 C4.98248822 14.41677122 2.26259001 19.34766045 -2 25 C-3.86295092 27.0923092 -4.5813601 27.88685408 -7.3125 28.625 C-11.61602546 27.62418012 -13.55196106 24.5204427 -16 21 C-18.34059403 16.85076514 -18.60599247 12.66803576 -18 8 C-16.70727212 4.93827606 -15.41968278 3.36881214 -12.9375 1.1875 C-8.59879834 -0.56644322 -4.60879829 -0.79274439 0 0 Z " fill="#000000" transform="translate(193,104)"/>
<path d="M0 0 C5.02237344 2.1509963 7.50097283 5.66374482 10.0625 10.4375 C10.78931868 13.27209284 10.48448163 15.08556428 9.6875 17.875 C8.6975 17.875 7.7075 17.875 6.6875 17.875 C6.20764033 16.60442818 5.7286407 15.33353152 5.25 14.0625 C4.98316406 13.35480469 4.71632813 12.64710938 4.44140625 11.91796875 C3.82524814 10.24827604 3.25030765 8.56342296 2.6875 6.875 C-2.85601001 5.05902258 -8.72803254 3.61612973 -14.42578125 5.6171875 C-16.90359053 7.26906035 -17.14732298 8.3627566 -17.75 11.25 C-18.99037576 18.90267542 -17.18960126 26.55489688 -12.875 33 C-8.93050284 37.4255334 -6.11559468 38.08366891 -0.3125 38.875 C0.0175 39.865 0.3475 40.855 0.6875 41.875 C-1.3125 43.875 -1.3125 43.875 -5.0625 44.25 C-10.81743221 44.08349202 -13.9238312 41.23060526 -17.9375 37.3125 C-23.73334637 29.79102947 -24.75663136 21.3782052 -24.74609375 12.13671875 C-24.25875909 8.47073282 -23.22265249 6.02812253 -21.3125 2.875 C-18.75 1.0625 -18.75 1.0625 -16.3125 -0.125 C-11.53560934 -2.51344533 -4.94950767 -1.60269772 0 0 Z " fill="#000000" transform="translate(305.3125,121.125)"/>
<path d="M0 0 C2.5625 2.0625 2.5625 2.0625 5 5 C5.54140625 5.61488281 6.0828125 6.22976562 6.640625 6.86328125 C9.45695683 10.25209175 10.89253774 12.40407293 11.6875 16.8125 C11 20 11 20 8.9375 21.9375 C3.2775816 23.98470453 -1.69244072 23.30801018 -7.13671875 21.03515625 C-10.91432208 18.93648773 -13.37240931 16.1428919 -14.59375 11.97265625 C-15.06664263 9.08693643 -15.12996603 6.5343048 -14.4375 3.6875 C-10.378879 -1.07696813 -5.79221594 -1.68500827 0 0 Z " fill="#000000" transform="translate(210,90)"/>
<path d="M0 0 C5.17512686 3.81973649 7.21414992 8.99915968 9 15 C9.4375 18.5 9.4375 18.5 9 21 C6 23 6 23 4.01953125 23.00390625 C-2.41873226 21.71625355 -6.66149833 18.93153428 -11 14 C-13.23610688 10.26344356 -13.47511773 7.3552459 -13 3 C-9.12498515 -1.00863605 -5.23601617 -1.46608453 0 0 Z " fill="#000000" transform="translate(304,133)"/>
</svg>
