<svg width="34" height="34" viewBox="0 0 34 34" fill="none" xmlns="http://www.w3.org/2000/svg">
<path d="M22.6098 8.81916C22.6571 8.58596 22.682 8.3446 22.682 8.09743C22.682 6.10442 21.0663 4.48877 19.0733 4.48877C17.0803 4.48877 15.4647 6.10442 15.4647 8.09743C15.4647 8.3446 15.4895 8.58596 15.5368 8.81916H11.6956C10.1898 8.81916 8.96906 10.0399 8.96906 11.5457V15.3869C8.73586 15.3396 8.4945 15.3147 8.24733 15.3147C6.25432 15.3147 4.63867 16.9304 4.63867 18.9234C4.63867 20.9164 6.25432 22.5321 8.24733 22.5321C8.4945 22.5321 8.73586 22.5072 8.96906 22.4599V26.3011C8.96906 27.8069 10.1898 29.0277 11.6956 29.0277H26.451C27.9568 29.0277 29.1776 27.8069 29.1776 26.3011V22.4599C28.9444 22.5072 28.703 22.5321 28.4558 22.5321C26.4628 22.5321 24.8472 20.9164 24.8472 18.9234C24.8472 16.9304 26.4628 15.3147 28.4558 15.3147C28.703 15.3147 28.9444 15.3396 29.1776 15.3869V11.5457C29.1776 10.0399 27.9568 8.81916 26.451 8.81916H22.6098Z" stroke="#F5F1E9" stroke-width="2.72654" stroke-linejoin="round"/>
</svg>
