<svg width="333" height="61" viewBox="0 0 333 61" fill="none" xmlns="http://www.w3.org/2000/svg">
<g clip-path="url(#clip0_493_783)">
<path d="M211.103 6.28756C187.663 7.91838 164.257 10.0404 140.909 12.6528C119.676 13.8483 98.4393 15.0441 77.2066 16.2396C53.9082 17.5533 30.6097 18.8632 7.31524 20.1767C5.06136 20.3021 1.63265 22.0927 1.38327 24.6073C1.10924 27.3806 4.53887 27.7101 6.45877 27.6054C21.5981 26.7524 36.7375 25.8995 51.8768 25.0465C45.6028 26.0926 39.3376 27.1691 33.0739 28.284C30.9032 28.6717 27.8957 29.8111 27.2923 32.2239C26.7519 34.3765 28.7543 35.8115 30.819 35.7704C65.829 35.0211 100.843 34.2755 135.853 33.5262C143.304 33.366 150.755 33.2096 158.206 33.0493C147.539 34.6341 136.895 36.395 126.288 38.3315C109.655 41.3738 93.1088 44.8591 76.6508 48.7372C74.8738 49.1559 72.3946 50.8214 72.1993 52.8414C72.0082 54.7727 74.1737 55.9475 75.8725 55.8974C115.675 54.7094 155.479 53.5252 195.282 52.3372C206.504 52.0007 217.724 51.6683 228.946 51.3319C231.518 51.2558 234.786 50.3949 235.984 47.8207C237.053 45.5169 234.814 43.7216 232.604 43.7876C194.288 44.9298 155.972 46.072 117.657 47.2143C118.719 47.0117 119.777 46.8055 120.839 46.6068C135.23 43.9049 149.683 41.5277 164.18 39.4797C193.189 35.3832 222.379 32.5995 251.64 31.1445C252.935 31.0792 254.244 31.021 255.551 30.963C270.399 30.6446 285.243 30.3302 300.092 30.0117C302.66 29.9551 305.938 29.0591 307.129 26.5006C308.223 24.1496 305.942 22.4714 303.749 22.4674C288.583 22.4441 273.416 22.7671 258.266 23.4396C238.415 23.8623 218.565 24.2889 198.715 24.7116C163.705 25.461 128.691 26.2066 93.6808 26.9559C90.8587 27.0146 88.0329 27.0774 85.2108 27.1361C103.455 24.482 121.742 22.1263 140.064 20.0771C178.34 17.9206 216.621 15.7677 254.897 13.6111C278.195 12.2974 301.494 10.9876 324.788 9.67407C326.927 9.55316 330.013 7.96429 330.57 5.73414C331.117 3.55439 329.102 2.18527 327.043 2.18766C288.362 2.23963 249.686 3.60355 211.103 6.28756Z" fill="#CF7D7D"/>
</g>
<defs>
<clipPath id="clip0_493_783">
<rect width="329.819" height="46.5134" fill="white" transform="translate(0.937988 13.5778) rotate(-2.20756)"/>
</clipPath>
</defs>
</svg>
